Coordinates
version=1
nRows=10
nColumns=60
inDegrees=yes

Units are S.I. units (second, meters, Newtons, ...)
If the header above contains a line with 'inDegrees', this indicates whether rotational values are in degrees (yes) or radians (no).

endheader
time	pelvis_tilt	pelvis_list	pelvis_rotation	pelvis_tx	pelvis_ty	pelvis_tz	hip_flexion_r	hip_adduction_r	hip_rotation_r	knee_angle_r_beta	knee_angle_r	ankle_angle_r	subtalar_angle_r	mtp_angle_r	hip_flexion_l	hip_adduction_l	hip_rotation_l	knee_angle_l_beta	knee_angle_l	ankle_angle_l	subtalar_angle_l	mtp_angle_l	L5_S1_Flex_Ext	L5_S1_Lat_Bending	L5_S1_axial_rotation	L4_L5_Flex_Ext	L4_L5_Lat_Bending	L4_L5_axial_rotation	L3_L4_Flex_Ext	L3_L4_Lat_Bending	L3_L4_axial_rotation	L2_L3_Flex_Ext	L2_L3_Lat_Bending	L2_L3_axial_rotation	L1_L2_Flex_Ext	L1_L2_Lat_Bending	L1_L2_axial_rotation	L1_T12_Flex_Ext	L1_T12_Lat_Bending	L1_T12_axial_rotation	Abs_r3	Abs_r2	Abs_r1	Abs_t1	Abs_t2	arm_flex_r	arm_add_r	arm_rot_r	elbow_flex_r	pro_sup_r	wrist_flex_r	wrist_dev_r	arm_flex_l	arm_add_l	arm_rot_l	elbow_flex_l	pro_sup_l	wrist_flex_l	wrist_dev_l
     86.37000000	      0.49734995	    -14.20230947	     94.15071835	      0.40942297	      0.85645479	      0.41763903	     47.36095641	     -6.60401942	      0.11336566	      0.66720972	    -38.22830111	      7.62037673	      0.00000000	      0.00000000	     47.73699567	     -4.96197280	      0.11290882	      0.61609750	    -35.29978680	      5.84129602	      0.00000000	      0.00000000	    -11.00086887	      0.27096438	     -0.17386825	    -20.42971358	      0.36038262	     -0.18473502	    -18.07332747	      0.65882279	     -0.18473502	    -12.57289303	      0.65882279	     -0.15213472	    -10.21540683	      0.55255056	     -0.14126795	     -6.28589647	      0.41972382	     -0.13040119	    -78.57810625	      3.06520324	     -0.96700305	      0.00000000	      0.00000000	     90.17938297	    -14.71508548	     23.24637168	     27.64138021	     70.50584102	     23.86892913	     -0.49344545	     95.60083347	    -14.32578962	     42.76769911	     21.21371525	     58.21155717	     28.30473805	     -7.28565998
     86.38000000	      0.53584925	    -14.17613967	     94.14224018	      0.40943866	      0.85597325	      0.41824535	     47.41862391	     -6.56751031	      0.10663528	      0.66814742	    -38.28202733	      7.62320310	      0.00000000	      0.00000000	     47.81057247	     -5.01366900	      0.11503988	      0.61732303	    -35.37000416	      5.82900316	      0.00000000	      0.00000000	    -11.00905947	      0.27050374	     -0.18547278	    -20.44492435	      0.35976997	     -0.19706483	    -18.08678381	      0.65770279	     -0.19706483	    -12.58225407	      0.65770279	     -0.16228869	    -10.22301263	      0.55161123	     -0.15069664	     -6.29057658	      0.41901029	     -0.13910459	    -78.63661090	      3.05999240	     -1.03154398	      0.00000000	      0.00000000	     90.01851944	    -14.71267356	     23.11695427	     28.11671125	     70.15116813	     23.85420095	     -0.46843354	     95.63988653	    -14.40497972	     42.45624732	     21.26412339	     57.98742253	     28.31277242	     -7.28236871
     86.39000000	      0.56328880	    -14.11952377	     94.12868082	      0.40948333	      0.85552679	      0.41887799	     47.48133536	     -6.53939882	      0.08072064	      0.67026685	    -38.40346138	      7.62158046	      0.00000000	      0.00000000	     47.89377405	     -5.06678503	      0.09661971	      0.62006888	    -35.52732955	      5.79766427	      0.00000000	      0.00000000	    -11.01733895	      0.26806168	     -0.20018074	    -20.46030017	      0.35652203	     -0.21269204	    -18.10038616	      0.65176517	     -0.21269204	    -12.59171669	      0.65176517	     -0.17515815	    -10.23070095	      0.54663138	     -0.16264685	     -6.29530748	      0.41522754	     -0.15013556	    -78.69575040	      3.03236733	     -1.11334522	      0.00000000	      0.00000000	     89.84634842	    -14.67617108	     22.98184201	     28.59177902	     69.84711145	     23.82361841	     -0.43413724	     95.63598007	    -14.51544423	     42.13503038	     21.32260101	     57.78449730	     28.32630746	     -7.27963594
     86.40000000	      0.58762680	    -14.08261389	     94.14973925	      0.40949530	      0.85511277	      0.41950504	     47.51769684	     -6.53784131	      0.07195784	      0.67105535	    -38.44863935	      7.62194779	      0.00000000	      0.00000000	     47.95028381	     -5.09968605	      0.08219677	      0.62095537	    -35.57812194	      5.78743455	      0.00000000	      0.00000000	    -11.01841703	      0.26731233	     -0.20804494	    -20.46230226	      0.35552539	     -0.22104775	    -18.10215733	      0.64994319	     -0.22104775	    -12.59294882	      0.64994319	     -0.18203932	    -10.23170205	      0.54510330	     -0.16903651	     -6.29592349	      0.41406679	     -0.15603370	    -78.70345097	      3.02389051	     -1.15708353	      0.00000000	      0.00000000	     89.59204218	    -14.72497766	     22.76805174	     29.18680666	     69.39428837	     23.80754149	     -0.41537863	     95.54483293	    -14.54032014	     41.71697707	     21.42725434	     57.47351428	     28.33810483	     -7.28074342
     86.41000000	      0.58832700	    -14.02471230	     94.13014281	      0.40955659	      0.85473808	      0.42011064	     47.57291001	     -6.54547858	      0.02314264	      0.67317105	    -38.56986028	      7.61920524	      0.00000000	      0.00000000	     48.02008149	     -5.12761949	      0.06180768	      0.62365962	    -35.73306429	      5.74395356	      0.00000000	      0.00000000	    -11.01593196	      0.26420028	     -0.21020190	    -20.45768725	      0.35138637	     -0.22333952	    -18.09807462	      0.64237655	     -0.22333952	    -12.59010864	      0.64237655	     -0.18392666	    -10.22939442	      0.53875720	     -0.17078905	     -6.29450352	      0.40924623	     -0.15765143	    -78.68570042	      2.98868637	     -1.16907992	      0.00000000	      0.00000000	     89.40155493	    -14.73861785	     22.62872279	     29.52505814	     69.16239146	     23.75769065	     -0.37598026	     95.42448978	    -14.58203364	     41.44747499	     21.55047208	     57.29977112	     28.36096776	     -7.26507007
     86.42000000	      0.59315539	    -14.15923466	     94.13984183	      0.40959757	      0.85395697	      0.42079402	     47.89657439	     -6.58885360	     -0.06202594	      0.67738325	    -38.81120124	      7.63648202	      0.00000000	      0.00000000	     48.40510068	     -5.14401842	     -0.01124949	      0.62999072	    -36.09580910	      5.68294193	      0.00000000	      0.00000000	    -10.97852887	      0.26484562	     -0.22635887	    -20.38822596	      0.35224468	     -0.24050629	    -18.03662508	      0.64394564	     -0.24050629	    -12.54736064	      0.64394564	     -0.19806401	    -10.19466191	      0.54007319	     -0.18391658	     -6.27313140	      0.41024587	     -0.16976915	    -78.41853386	      2.99598664	     -1.25894010	      0.00000000	      0.00000000	     88.92882912	    -14.47634359	     21.31109137	     30.25719514	     72.02170657	     20.91737411	      1.06536167	     94.92739973	    -14.75119649	     39.73173872	     22.18668112	     58.89479818	     28.64740619	     -5.88982929
     86.43000000	      0.61422319	    -14.09779373	     94.14379863	      0.40967745	      0.85377454	      0.42133530	     47.89420794	     -6.57616243	     -0.09165354	      0.67813482	    -38.85426287	      7.61871082	      0.00000000	      0.00000000	     48.40166215	     -5.17144826	     -0.01767710	      0.63021368	    -36.10858407	      5.66739003	      0.00000000	      0.00000000	    -10.97094035	      0.26647922	     -0.21677255	    -20.37413332	      0.35441736	     -0.23032083	    -18.02415790	      0.64791758	     -0.23032083	    -12.53868772	      0.64791758	     -0.18967598	    -10.18761521	      0.54340443	     -0.17612769	     -6.26879531	      0.41277631	     -0.16257941	    -78.36432980	      3.01446625	     -1.20562388	      0.00000000	      0.00000000	     88.71081207	    -14.50353865	     21.18262432	     30.47858873	     71.74750012	     20.90476059	      1.08228525	     94.74670040	    -14.71439219	     39.52060538	     22.27180600	     58.71963086	     28.65198438	     -5.87408238
     86.44000000	      0.62402367	    -14.04580628	     94.14717026	      0.40973321	      0.85364987	      0.42185479	     47.88880188	     -6.58218920	     -0.13029639	      0.67850646	    -38.87555630	      7.59597275	      0.00000000	      0.00000000	     48.40363564	     -5.18052996	     -0.00061863	      0.63068698	    -36.13570224	      5.66022443	      0.00000000	      0.00000000	    -10.95825062	      0.26850937	     -0.20673661	    -20.35056722	      0.35711747	     -0.21965765	    -18.00330994	      0.65285369	     -0.21965765	    -12.52418463	      0.65285369	     -0.18089453	    -10.17583152	      0.54754431	     -0.16797349	     -6.26154440	      0.41592102	     -0.15505246	    -78.27368835	      3.03743174	     -1.14980700	      0.00000000	      0.00000000	     88.50837164	    -14.51158833	     21.07552311	     30.57014335	     71.58126534	     20.88134228	      1.09817856	     94.53151674	    -14.65550034	     39.38539527	     22.35025030	     58.60602578	     28.64605382	     -5.84959951
     86.45000000	      0.75093682	    -14.13002115	     94.22945375	      0.40974759	      0.85334888	      0.42244434	     48.00410477	     -6.54467412	     -0.29581070	      0.67842108	    -38.87066440	      7.46923500	      0.00000000	      0.00000000	     48.61334220	     -5.21600010	      0.18350308	      0.63225258	    -36.22540447	      5.66718656	      0.00000000	      0.00000000	    -10.91834032	      0.28523524	     -0.18368435	    -20.27644981	      0.37936286	     -0.19516462	    -17.93774132	      0.69352095	     -0.19516462	    -12.47857116	      0.69352095	     -0.16072381	    -10.13877082	      0.58165169	     -0.14924353	     -6.23873966	      0.44182938	     -0.13776326	    -77.98861309	      3.22663804	     -1.02159725	      0.00000000	      0.00000000	     88.25429395	    -14.43681095	     20.65015907	     30.53436051	     71.43615883	     20.54389998	      1.18753116	     94.19085279	    -14.52951510	     39.00481118	     22.45649352	     58.59284847	     28.31857037	     -5.55855668
     86.46000000	      0.73679739	    -14.06999828	     94.24052927	      0.40980148	      0.85342611	      0.42285331	     47.95297331	     -6.57228485	     -0.31322142	      0.67812373	    -38.85362798	      7.45644404	      0.00000000	      0.00000000	     48.56485096	     -5.19639977	      0.18918158	      0.63185336	    -36.20253071	      5.66289644	      0.00000000	      0.00000000	    -10.90356126	      0.28505326	     -0.17768279	    -20.24900361	      0.37912083	     -0.18878797	    -17.91346079	      0.69307848	     -0.18878797	    -12.46168016	      0.69307848	     -0.15547244	    -10.12504698	      0.58128060	     -0.14436727	     -6.23029490	      0.44154749	     -0.13326209	    -77.88304769	      3.22457943	     -0.98821838	      0.00000000	      0.00000000	     88.04841589	    -14.43777781	     20.57674418	     30.51641855	     71.33631098	     20.51479932	      1.20959536	     93.96008455	    -14.44710223	     38.90992262	     22.52272426	     58.50532747	     28.29836915	     -5.52921848
